<?xml version="1.0" encoding="utf-8"?>
<!-- Generator: Adobe Illustrator 17.0.0, SVG Export Plug-In . SVG Version: 6.00 Build 0)  -->
<!DOCTYPE svg PUBLIC "-//W3C//DTD SVG 1.1//EN" "http://www.w3.org/Graphics/SVG/1.1/DTD/svg11.dtd">
<svg version="1.1" id="Layer_1" xmlns="http://www.w3.org/2000/svg" xmlns:xlink="http://www.w3.org/1999/xlink" x="0px" y="0px"
	 width="83.122px" height="31.956px" viewBox="0 0 83.122 31.956" enable-background="new 0 0 83.122 31.956" xml:space="preserve">
<g>
	<path fill="#505050" d="M18.098,15.628c-3.05,0-5.522,2.472-5.522,5.522s2.472,5.522,5.522,5.522S23.62,24.2,23.62,21.15
		S21.148,15.628,18.098,15.628z M18.098,24.255c-1.714,0-3.104-1.39-3.104-3.104s1.39-3.104,3.104-3.104s3.104,1.39,3.104,3.104
		S19.812,24.255,18.098,24.255z"/>
	<path fill="#505050" d="M64.094,15.628c-3.05,0-5.522,2.472-5.522,5.522s2.472,5.522,5.522,5.522c3.05,0,5.522-2.472,5.522-5.522
		S67.144,15.628,64.094,15.628z M64.094,24.255c-1.714,0-3.104-1.39-3.104-3.104s1.39-3.104,3.104-3.104
		c1.714,0,3.104,1.39,3.104,3.104S65.808,24.255,64.094,24.255z"/>
	<path fill="#505050" d="M77.431,16.74c-0.677-1.79-1.731-2.766-2.43-3.249c-0.351-0.242-0.753-0.371-1.16-0.498
		c-5.928-1.847-15.252-2.702-15.252-2.702s-6.526-3.186-9.712-4.584s-7.77-1.865-7.77-1.865H30.852
		c-11.654,0-19.657,5.594-19.657,5.594l-5.77,0.929c-0.575,0.092-1.004,0.578-1.025,1.16l-0.104,2.923
		c-0.01,0.272-0.133,0.527-0.34,0.703l-0.012,0.01c-0.526,0.448-0.829,1.105-0.829,1.796v3.446c0,0.444,0.316,0.825,0.752,0.907
		l7.157,1.345c0.22,0.041,0.424-0.128,0.424-0.352v-1.152h0.046c0-1.093,0.287-2.257,1.048-3.48c0.945-1.519,2.45-2.649,4.205-2.996
		c4.243-0.84,7.961,2.384,7.961,6.476v1.646c0,0.238,0.193,0.431,0.431,0.431h31.746c0.292,0,0.529-0.237,0.528-0.529l-0.005-1.476
		c-0.007-0.685,0.089-1.395,0.323-2.123c0.771-2.394,2.895-4.172,5.389-4.5c4.05-0.532,7.506,2.606,7.506,6.551h0.003v1.519
		c0,0.308,0.25,0.558,0.558,0.558h1.815V22.45h4.03c0.244,0,0.458-0.16,0.525-0.395C77.809,21.179,78.275,18.971,77.431,16.74z
		 M25.724,10.159l-4.334-0.103c-0.327-0.008-0.515-0.377-0.323-0.641c0.684-0.94,2.223-2.709,4.657-3.648V10.159z M36.835,10.424
		l-10.334-0.246V5.507c0.787-0.226,1.653-0.363,2.603-0.363h7.731V10.424z M52.413,10.796l-13.869-0.331V5.144h2.914
		c0,0,6.06,0.699,10.955,3.846C52.413,8.99,52.413,10.796,52.413,10.796z"/>
</g>
</svg>
