<?xml version="1.0" encoding="utf-8"?>
<!-- Generator: Adobe Illustrator 17.0.0, SVG Export Plug-In . SVG Version: 6.00 Build 0)  -->
<!DOCTYPE svg PUBLIC "-//W3C//DTD SVG 1.1//EN" "http://www.w3.org/Graphics/SVG/1.1/DTD/svg11.dtd">
<svg version="1.1" id="Layer_1" xmlns="http://www.w3.org/2000/svg" xmlns:xlink="http://www.w3.org/1999/xlink" x="0px" y="0px"
	 width="21.023px" height="54.327px" viewBox="32.19 0 21.023 54.327" enable-background="new 32.19 0 21.023 54.327"
	 xml:space="preserve">
<g>
	<path fill="#505050" d="M48.639,10.257H36.765c-2.526,0-4.575,2.068-4.575,4.621v1.65v9.669v3.188c0,1.102,0.893,1.995,1.994,1.995
		c1.101,0,1.994-0.893,1.994-1.995v-3.142h0.012v-9.919c0-0.269,0.306-0.488,0.684-0.488c0.378,0,0.684,0.22,0.684,0.488v9.935
		h0.019v3.345v2.179v20.551c0,1.101,0.989,1.994,2.209,1.994c1.22,0,2.209-0.894,2.209-1.994V31.782h0.002
		c0.044-0.35,0.339-0.62,0.701-0.62c0.362,0,0.657,0.271,0.702,0.62h0.012v20.551c0,1.101,0.989,1.994,2.209,1.994
		c1.22,0,2.209-0.894,2.209-1.994V31.782v-2.179V16.317c0.005-0.266,0.307-0.482,0.682-0.482c0.378,0,0.684,0.22,0.684,0.488v10.069
		l0.03,0.001v2.99c0,1.102,0.893,1.995,1.994,1.995c1.102,0,1.994-0.893,1.994-1.995V26.44v-9.912v-1.65
		C53.213,12.325,51.165,10.257,48.639,10.257z"/>
	<circle fill="#505050" cx="42.974" cy="4.495" r="4.495"/>
</g>
</svg>
