<?xml version="1.0" encoding="utf-8"?>
<!-- Generator: Adobe Illustrator 17.0.0, SVG Export Plug-In . SVG Version: 6.00 Build 0)  -->
<!DOCTYPE svg PUBLIC "-//W3C//DTD SVG 1.1//EN" "http://www.w3.org/Graphics/SVG/1.1/DTD/svg11.dtd">
<svg version="1.1" id="Layer_1" xmlns="http://www.w3.org/2000/svg" xmlns:xlink="http://www.w3.org/1999/xlink" x="0px" y="0px"
	 width="83.122px" height="31.956px" viewBox="0 0 83.122 31.956" enable-background="new 0 0 83.122 31.956" xml:space="preserve">
<g>
	<path fill="#505050" d="M16.557,16.402c-3.17,0-5.74,2.57-5.74,5.74s2.57,5.74,5.74,5.74s5.74-2.57,5.74-5.74
		S19.727,16.402,16.557,16.402z M16.557,25.369c-1.782,0-3.226-1.445-3.226-3.226s1.444-3.226,3.226-3.226s3.227,1.445,3.227,3.226
		S18.339,25.369,16.557,25.369z"/>
	<path fill="#505050" d="M64.204,17.048c-2.992,0-5.417,2.425-5.417,5.417s2.425,5.417,5.417,5.417c2.992,0,5.417-2.425,5.417-5.417
		S67.196,17.048,64.204,17.048z M64.204,25.51c-1.682,0-3.045-1.363-3.045-3.045s1.363-3.045,3.045-3.045s3.045,1.363,3.045,3.045
		S65.886,25.51,64.204,25.51z"/>
	<rect x="24.436" y="6.736" fill="#505050" width="2.827" height="7.672"/>
	<path fill="#505050" d="M79.27,20.061c-0.323-1.131-3.23-3.553-7.914-5.492c-4.676-1.935-18.203-2.26-18.251-2.261
		c-0.001,0,0.001,0,0,0c-0.043-0.021-10.664-4.685-12.921-5.33c-2.261-0.646-9.045-1.454-16.313-0.485
		c-7.229,0.964-15.256,3.68-15.343,3.715c-0.002,0-0.002,0-0.004,0L3.466,11.96c-0.164,0.177-0.261,0.28-0.425,0.457l0.155,9.888
		c0.006,0.008,0.01,0.013,0.016,0.021l6.579,1.645c0.014,0.003,0.027-0.007,0.027-0.021v-1.739c0-3.664,2.815-6.827,6.476-6.989
		c3.887-0.172,7.092,2.928,7.092,6.777v3.37c0.009,0.009,0.013,0.013,0.022,0.022h34.198c0.008-0.009,0.013-0.013,0.022-0.022
		v-2.521c0-3.49,2.682-6.503,6.168-6.657c3.701-0.163,6.753,2.789,6.753,6.454v2.724c0.008,0.009,0.013,0.013,0.022,0.022h4.819
		c0.003-0.001,0.006-0.001,0.009-0.002l3.861-1.77c0.005-0.006,0.007-0.008,0.012-0.013C79.291,23.452,79.583,21.153,79.27,20.061z
		 M33.077,12.389c-7.003-0.365-15.463-1.993-19.931-2.019c-0.023,0-0.031-0.03-0.009-0.039c0.877-0.386,8.898-2.812,13.52-2.99
		C31.906,7.14,36.994,7.14,39.78,8.109l9.771,4.481c0.02,0.01,0.016,0.04-0.007,0.041C48.355,12.688,39.615,12.73,33.077,12.389z"/>
</g>
</svg>
