<?xml version="1.0" encoding="utf-8"?>
<!-- Generator: Adobe Illustrator 17.0.0, SVG Export Plug-In . SVG Version: 6.00 Build 0)  -->
<!DOCTYPE svg PUBLIC "-//W3C//DTD SVG 1.1//EN" "http://www.w3.org/Graphics/SVG/1.1/DTD/svg11.dtd">
<svg version="1.1" id="Layer_1" xmlns="http://www.w3.org/2000/svg" xmlns:xlink="http://www.w3.org/1999/xlink" x="0px" y="0px"
	 width="83.122px" height="31.956px" viewBox="0 0 83.122 31.956" enable-background="new 0 0 83.122 31.956" xml:space="preserve">
<g>
	<path fill="#505050" d="M16.135,16.674c-3.556,0-6.439,2.883-6.439,6.439s2.883,6.439,6.439,6.439s6.439-2.883,6.439-6.439
		S19.691,16.674,16.135,16.674z M16.135,26.733c-1.999,0-3.619-1.621-3.619-3.619s1.62-3.619,3.619-3.619s3.62,1.62,3.62,3.619
		S18.134,26.733,16.135,26.733z"/>
	<path fill="#505050" d="M66.324,16.674c-3.556,0-6.439,2.883-6.439,6.439s2.883,6.439,6.439,6.439s6.439-2.883,6.439-6.439
		S69.88,16.674,66.324,16.674z M66.324,26.733c-1.999,0-3.619-1.621-3.619-3.619s1.62-3.619,3.619-3.619s3.62,1.62,3.62,3.619
		S68.323,26.733,66.324,26.733z"/>
	<path fill="#505050" d="M80.854,22.492v-3.435c0-0.73-0.003-1.466-0.321-1.905l-0.547-0.725c-1.621-2.076-3.894-3.538-6.455-4.156
		c-7.201-1.738-13.11-2.329-13.11-2.329c-3.929-2.183-8.334-4.762-13.199-6.657c-3.673-1.431-5.167-1.407-13.798-1.592
		c-9.82-0.21-23.1,6.503-23.1,6.503l-6.267,0.53c-0.873,0.073-1.587,0.725-1.74,1.588l-0.941,5.303H1.364
		c-0.656,0-1.189,0.532-1.189,1.188v1.649c0,2.838,1.419,4.256,1.419,4.256l6.001,2.1c0.271,0.095,0.554-0.106,0.554-0.393v-1.209
		c-0.01-0.858,0.147-1.748,0.46-2.659c0.956-2.78,3.437-4.818,6.352-5.193c4.77-0.614,8.837,3.074,8.86,7.717h0.002v1.359
		c0,0.315,0.255,0.57,0.57,0.57h33.498c0.358,0,0.648-0.29,0.648-0.648v-0.446c-0.108-1.067-0.006-2.195,0.392-3.355
		c0.953-2.776,3.441-4.822,6.352-5.197c4.771-0.615,8.838,3.073,8.862,7.717h0.002v1.359c0,0.315,0.255,0.57,0.57,0.57h1.986
		C80.961,25.002,80.854,22.492,80.854,22.492z M18.532,8.884c-0.403-0.013-0.57-0.517-0.257-0.771
		c1.622-1.319,6.01-4.783,13.115-4.91c0.638-0.011,1.235-0.02,1.808-0.027V9.33L18.532,8.884z M53.333,9.504
		c0,0.24-0.199,0.433-0.439,0.426L35.192,9.391V3.16c6.093-0.023,7.977,0.26,9.648,0.774c2.794,0.86,6.34,2.922,7.878,3.72
		c0.38,0.197,0.615,0.588,0.615,1.016V9.504z"/>
</g>
</svg>
