<?xml version="1.0" encoding="utf-8"?>
<!-- Generator: Adobe Illustrator 17.0.0, SVG Export Plug-In . SVG Version: 6.00 Build 0)  -->
<!DOCTYPE svg PUBLIC "-//W3C//DTD SVG 1.1//EN" "http://www.w3.org/Graphics/SVG/1.1/DTD/svg11.dtd">
<svg version="1.1" id="Layer_1" xmlns="http://www.w3.org/2000/svg" xmlns:xlink="http://www.w3.org/1999/xlink" x="0px" y="0px"
	 width="83.122px" height="31.956px" viewBox="0 0 83.122 31.956" enable-background="new 0 0 83.122 31.956" xml:space="preserve">
<g>
	<path fill="#505050" d="M18.286,18.634c-3.679,0-6.661,2.982-6.661,6.661s2.982,6.661,6.661,6.661s6.661-2.982,6.661-6.661
		C24.947,21.617,21.965,18.634,18.286,18.634z M18.286,28.685c-1.872,0-3.389-1.517-3.389-3.389s1.518-3.389,3.389-3.389
		c1.872,0,3.389,1.517,3.389,3.389C21.676,27.167,20.158,28.685,18.286,28.685z"/>
	<path fill="#505050" d="M71.358,18.634c-3.679,0-6.661,2.982-6.661,6.661s2.982,6.661,6.661,6.661s6.661-2.982,6.661-6.661
		C78.019,21.617,75.037,18.634,71.358,18.634z M71.358,28.685c-1.872,0-3.389-1.517-3.389-3.389s1.518-3.389,3.389-3.389
		c1.872,0,3.389,1.517,3.389,3.389C74.747,27.167,73.23,28.685,71.358,28.685z"/>
	<path fill="#505050" d="M82.648,18.644l-0.621-0.448c-0.259-0.187-0.428-0.474-0.466-0.791l-0.406-3.385
		c-0.049-0.409-0.311-0.765-0.692-0.922c-6.057-2.495-13.211-2.929-16.2-3.192c-3.09-0.273-4.271-1.454-4.271-1.454
		s-5.453-4.089-8.997-6.27s-7.952-2.09-7.952-2.09L12.01,0C7.457,0,4.186,5.192,2.831,10.087c-0.847,3.062-0.994,6.013-1.009,7.451
		c-0.005,0.535-0.378,0.994-0.9,1.108L0.901,18.65c-0.633,0.138-1.026,0.774-0.865,1.401l1.302,5.08
		c0.13,0.506,0.586,0.859,1.108,0.859h6.988l0.42-3.335c0.388-3.079,3.007-5.389,6.111-5.389h4.404c3.104,0,5.723,2.31,6.111,5.389
		l0.42,3.335h35.424l0.489-3.88c0.388-3.079,3.007-5.389,6.111-5.389h4.404c3.104,0,5.723,2.31,6.111,5.389l0.453,3.598l1.291-0.287
		c0.434-0.096,0.773-0.436,0.869-0.87l1.044-4.734C83.193,19.372,83.017,18.911,82.648,18.644z M18.593,9.679
		c-0.308,0.676-0.983,1.112-1.726,1.112H4.012c0.057-0.234,0.117-0.469,0.182-0.704C5.023,7.092,6.87,3.993,9.04,2.034
		c0.364-0.329,0.835-0.512,1.325-0.512h11.756c0.35,0,0.57,0.379,0.391,0.68C21.72,3.538,20.091,6.393,18.593,9.679z M35.663,10.792
		H22.781c-0.391,0-0.665-0.385-0.533-0.753c0.603-1.682,2.137-5.788,3.592-8.245c0.101-0.171,0.286-0.271,0.484-0.271h9.338
		c0.312,0,0.565,0.253,0.565,0.565v8.139C36.228,10.539,35.975,10.792,35.663,10.792z M57.902,10.792H39.754
		c-0.329,0-0.595-0.266-0.595-0.595v-8c0-0.377,0.3-0.689,0.676-0.701c6.902-0.223,9.206,1.185,9.206,1.185
		c3.476,2.113,8.86,6.27,8.86,6.27L57.902,10.792L57.902,10.792z"/>
</g>
</svg>
