<?xml version="1.0" encoding="utf-8"?>
<!-- Generator: Adobe Illustrator 17.0.0, SVG Export Plug-In . SVG Version: 6.00 Build 0)  -->
<!DOCTYPE svg PUBLIC "-//W3C//DTD SVG 1.1//EN" "http://www.w3.org/Graphics/SVG/1.1/DTD/svg11.dtd">
<svg version="1.1" id="Layer_1" xmlns="http://www.w3.org/2000/svg" xmlns:xlink="http://www.w3.org/1999/xlink" x="0px" y="0px"
	 width="83.122px" height="31.956px" viewBox="0 0 83.122 31.956" enable-background="new 0 0 83.122 31.956" xml:space="preserve">
<g>
	<path fill="#009BFF" d="M16.448,18.439c-3.075,0-5.568,2.493-5.568,5.568s2.493,5.568,5.568,5.568s5.568-2.493,5.568-5.568
		S19.523,18.439,16.448,18.439z M16.448,27.137c-1.728,0-3.13-1.401-3.13-3.13s1.401-3.13,3.13-3.13c1.729,0,3.13,1.401,3.13,3.13
		S18.176,27.137,16.448,27.137z"/>
	<path fill="#009BFF" d="M64.626,18.439c-3.075,0-5.568,2.493-5.568,5.568s2.493,5.568,5.568,5.568c3.075,0,5.568-2.493,5.568-5.568
		S67.701,18.439,64.626,18.439z M64.626,27.137c-1.728,0-3.13-1.401-3.13-3.13s1.401-3.13,3.13-3.13c1.729,0,3.13,1.401,3.13,3.13
		S66.355,27.137,64.626,27.137z"/>
	<path fill="#009BFF" d="M77.593,19.403h-0.949c-0.257,0-0.465-0.208-0.465-0.465V17.64c0-1.645-0.235-1.88-1.645-2.703
		S63.84,12.705,62.195,12.47c-1.505-0.215-4.68-1.02-5.212-1.156c-0.052-0.013-0.097-0.034-0.142-0.064
		c-0.74-0.502-7.536-4.652-8.983-5.714c-1.763-1.293-9.636-1.528-9.636-1.528s-23.267,0-26.674,0c-3.167,0-4.304,1.928-4.449,2.201
		C7.088,6.231,7.08,6.251,7.072,6.274l-1.733,4.613c-0.012,0.036-0.029,0.071-0.05,0.103l-1.187,1.834
		c-0.049,0.075-0.075,0.163-0.075,0.253v5.273c0,0.257-0.208,0.465-0.465,0.465H3.553c-0.257,0-0.465,0.208-0.465,0.465v3.3
		c0,0.257,0.208,0.465,0.465,0.465h0.567c0.22,0,0.41,0.154,0.455,0.369l0.33,1.57c0.038,0.179,0.176,0.319,0.354,0.358l3.445,0.766
		c0.273,0.061,0.538-0.132,0.564-0.41l0.398-4.181c0-2.336,1.894-4.23,4.23-4.23h4.935c2.336,0,4.23,1.894,4.23,4.23l0.43,4.514
		c0.023,0.239,0.223,0.421,0.463,0.421h32.996c0.24,0,0.44-0.182,0.463-0.421l0.43-4.514c0-2.336,1.894-4.23,4.23-4.23h4.935
		c2.336,0,4.23,1.894,4.23,4.23l0.43,4.514c0.023,0.239,0.223,0.421,0.463,0.421h2.254c0.162,0,0.312-0.084,0.397-0.222l1.96-3.198
		c0.085-0.138,0.235-0.222,0.397-0.222h0.449c0.257,0,0.465-0.208,0.465-0.465v-2.477C78.059,19.611,77.85,19.403,77.593,19.403z
		 M19.242,11.468c-0.032,0.172-0.182,0.296-0.357,0.296h-9.83c-0.23,0-0.401-0.211-0.355-0.436L9.665,7.08
		c0.003-0.013,0.005-0.023,0.009-0.035c0.059-0.193,0.596-1.743,2.579-1.743h7.789c0.227,0,0.398,0.206,0.357,0.429L19.242,11.468z
		 M35.638,11.402c0,0.2-0.162,0.363-0.363,0.363h-11.92c-0.217,0-0.386-0.19-0.36-0.406l0.736-5.737
		c0.022-0.183,0.176-0.32,0.36-0.32h11.183c0.2,0,0.363,0.162,0.363,0.363V11.402z M51.737,11.402c0,0.2-0.162,0.363-0.363,0.363
		h-12.67c-0.2,0-0.363-0.162-0.363-0.363V5.805c0-0.209,0.176-0.376,0.385-0.362c1.951,0.125,6.664,0.481,7.958,1.069
		c1.454,0.66,4.285,2.502,4.923,3.03c0.083,0.069,0.13,0.17,0.13,0.278V11.402z"/>
</g>
</svg>
