<?xml version="1.0" encoding="utf-8"?>
<!-- Generator: Adobe Illustrator 17.0.0, SVG Export Plug-In . SVG Version: 6.00 Build 0)  -->
<!DOCTYPE svg PUBLIC "-//W3C//DTD SVG 1.1//EN" "http://www.w3.org/Graphics/SVG/1.1/DTD/svg11.dtd">
<svg version="1.1" id="Layer_1" xmlns="http://www.w3.org/2000/svg" xmlns:xlink="http://www.w3.org/1999/xlink" x="0px" y="0px"
	 width="83.122px" height="31.956px" viewBox="0 0 83.122 31.956" enable-background="new 0 0 83.122 31.956" xml:space="preserve">
<g>
	<path fill="#009BFF" d="M70.536,18.365c-3.416,0-6.186,2.77-6.186,6.186c0,3.416,2.77,6.186,6.186,6.186
		c3.417,0,6.186-2.77,6.186-6.186C76.722,21.134,73.953,18.365,70.536,18.365z M70.536,27.698c-1.738,0-3.148-1.409-3.148-3.148
		c0-1.738,1.409-3.148,3.148-3.148c1.738,0,3.148,1.409,3.148,3.148C73.684,26.289,72.275,27.698,70.536,27.698z"/>
	<path fill="#009BFF" d="M17.999,18.365c-3.416,0-6.186,2.77-6.186,6.186c0,3.416,2.77,6.186,6.186,6.186
		c3.417,0,6.186-2.77,6.186-6.186C24.185,21.134,21.416,18.365,17.999,18.365z M17.999,27.698c-1.738,0-3.148-1.409-3.148-3.148
		c0-1.738,1.409-3.148,3.148-3.148c1.738,0,3.148,1.409,3.148,3.148C21.147,26.289,19.738,27.698,17.999,27.698z"/>
	<path fill="#009BFF" d="M34.674,10.378H2.999c-0.489,0-0.886,0.397-0.886,0.886v8.604v0v0.346h-0.66
		c-0.072,0.019-0.147,0.033-0.226,0.033H1.068c-0.489,0-0.886,0.397-0.886,0.886v2.533c0,0.489,0.397,0.886,0.886,0.886h3.037
		c0.16,0,0.318,0.485,0.456,0.568l5.077,0.562c0.335,0.034,0.626-0.228,0.626-0.565v-0.392c0-4.044,3.024-7.546,7.052-7.901
		c4.601-0.406,8.462,3.209,8.462,7.726v0.524c0,0.278,0.226,0.504,0.504,0.504l8.392-0.003V10.378z"/>
	<path fill="#009BFF" d="M82.166,20.731l-0.019-0.001c-0.471-0.024-0.842-0.413-0.842-0.885v-5.671c0-0.818-0.792-1.143-0.792-1.143
		c-6.997-1.672-17.54-2.536-17.54-2.536c-0.147-0.016-0.293-0.062-0.41-0.152C55.752,5.08,50.7,1.664,49.591,1.071
		c-1.224-0.654-2.033-0.675-2.194-0.675h-9.366c-1.083,0-1.961,0.878-1.961,1.961v7.491c0,0.168-0.049,0.323-0.13,0.456v15.27
		l26.232-0.011c0.336,0,0.608-0.272,0.608-0.608v-0.853h0.002c0-0.019-0.002,0.468-0.002,0.449c0-4.284,3.473-7.757,7.757-7.757
		c4.284,0,7.757,3.473,7.757,7.757c0,0.019-0.002,0.038-0.002,0.057h0.018v0.371c0,0.325,0.26,0.59,0.585,0.596l2.229,0.03
		c0.404,0.007,0.677-0.27,0.869-0.651l0.982-3.103C83.126,21.305,82.731,20.76,82.166,20.731z M57.302,9.493
		c0,0.489-0.397,0.886-0.886,0.886H40.671c-0.489,0-0.886-0.397-0.886-0.886V3.538c0-0.796,0.645-1.44,1.44-1.44h6.086
		c0.57,0,1.139,0.134,1.941,0.725c0,0,5.12,3.259,7.661,5.591c0,0,0.389,0.507,0.388,0.733V9.493z"/>
</g>
</svg>
