<?xml version="1.0" encoding="utf-8"?>
<!-- Generator: Adobe Illustrator 17.0.0, SVG Export Plug-In . SVG Version: 6.00 Build 0)  -->
<!DOCTYPE svg PUBLIC "-//W3C//DTD SVG 1.1//EN" "http://www.w3.org/Graphics/SVG/1.1/DTD/svg11.dtd">
<svg version="1.1" xmlns="http://www.w3.org/2000/svg" xmlns:xlink="http://www.w3.org/1999/xlink" x="0px" y="0px"
	 width="441.403px" height="254.987px" viewBox="0 0 441.403 254.987" enable-background="new 0 0 441.403 254.987"
	 xml:space="preserve">
<g id="Dot">
	<circle fill="#00A5E8" cx="116.403" cy="131.631" r="90"/>
</g>
<g id="type">
	<g>
		<g>
			<path d="M211.999,81.483V61.015h9.205v17.812c0,3.525,0.365,6.961,4.99,6.961s4.992-3.436,4.992-6.961V61.015h9.203v20.469
				c0,7.922-5.082,12.318-14.195,12.318C216.808,93.802,211.999,89.405,211.999,81.483z"/>
			<path d="M242.867,89.13l4.441-6.135c1.648,1.969,4.396,3.754,7.557,3.754c2.381,0,3.801-1.007,3.801-2.885
				c0-2.244-2.061-2.885-5.541-3.937c-4.672-1.42-8.793-3.847-8.793-9.387c0-6.091,4.992-10.166,12.043-10.166
				c4.9,0,8.609,1.511,10.945,3.709l-4.168,6.136c-1.328-1.511-3.572-2.793-6.318-2.793c-2.381,0-3.389,0.962-3.389,2.243
				c0,2.016,2.426,2.564,5.082,3.389c5.221,1.648,9.25,4.03,9.25,9.937c0,6.182-4.441,10.807-12.455,10.807
				C249.413,93.802,244.835,91.282,242.867,89.13z"/>
			<path d="M280.144,61.015h10.119l11.951,32.145h-9.57l-1.512-4.625h-12.135l-1.465,4.625h-9.342L280.144,61.015z M288.798,81.208
				l-2.473-7.738c-0.506-1.511-0.916-3.434-1.1-4.808h-0.275c-0.182,1.374-0.596,3.297-1.098,4.808l-2.475,7.738H288.798z"/>
			<path d="M220.06,107.031h-7.922v-7.464h25.047v7.464h-7.922v24.681h-9.203V107.031z"/>
			<path d="M237.828,115.685c0-7.921,5.68-16.758,17.631-16.758c11.996,0,17.674,8.837,17.674,16.758
				c0,7.877-5.678,16.668-17.674,16.668C243.507,132.353,237.828,123.562,237.828,115.685z M263.654,115.685
				c0-5.77-3.754-8.744-8.242-8.744c-4.396,0-8.15,2.975-8.15,8.744c0,5.725,3.754,8.654,8.15,8.654
				C259.9,124.339,263.654,121.409,263.654,115.685z"/>
			<path d="M276.435,99.567h11.859c11.357,0,17.859,6.045,17.859,16.072c0,9.846-6.686,16.072-17.859,16.072h-11.859V99.567z
				 M285.64,124.294h1.969c5.906,0,9.066-2.838,9.066-8.654s-3.16-8.654-9.066-8.654h-1.969V124.294z"/>
			<path d="M316.826,99.567h10.121l11.951,32.145h-9.57l-1.51-4.625h-12.137l-1.465,4.625h-9.342L316.826,99.567z M325.482,119.761
				l-2.475-7.738c-0.502-1.512-0.914-3.436-1.098-4.808h-0.275c-0.184,1.372-0.596,3.296-1.098,4.808l-2.473,7.738H325.482z"/>
			<path d="M344.58,120.265l-11.998-20.697h10.074l4.35,7.922c0.916,1.693,2.199,4.258,2.475,5.953h0.182
				c0.275-1.695,1.559-4.26,2.473-5.953l4.352-7.922h9.799l-11.998,20.697v11.447h-9.707V120.265z"/>
		</g>
		<g>
			<path d="M359.534,131.493v-3.68h-1.377v-0.492h3.309v0.492h-1.381v3.68H359.534z"/>
			<path d="M362.014,131.493v-4.172h0.832l0.986,2.954c0.092,0.274,0.158,0.482,0.199,0.617c0.049-0.151,0.121-0.374,0.223-0.669
				l0.998-2.902h0.744v4.172h-0.533v-3.492l-1.213,3.492h-0.498l-1.205-3.551v3.551H362.014z"/>
		</g>
	</g>
	<g>
		<path d="M216.882,152.076l-0.607-1.434h-2.477l-0.605,1.434h-1.104l2.889-6.352h0.152l2.881,6.352H216.882z M215.038,147.701
			l-0.891,2.094h1.779L215.038,147.701z"/>
		<path d="M276.027,152.178c-1.982,0-3.379-1.365-3.379-3.231c0-1.855,1.414-3.238,3.379-3.238c0.777,0,1.488,0.25,2.018,0.572
			l-0.369,0.906c-0.496-0.283-1.111-0.479-1.668-0.479c-1.375,0-2.211,0.914-2.211,2.238c0,1.316,0.861,2.231,2.24,2.231
			c0.555,0,1.205-0.195,1.707-0.496l0.324,0.908C277.548,151.922,276.804,152.178,276.027,152.178"/>
		<path d="M282.384,152.178c-1.81,0-3.139-1.375-3.139-3.231c0-1.863,1.387-3.238,3.197-3.238c1.812,0,3.139,1.375,3.139,3.238
			C285.581,150.803,284.197,152.178,282.384,152.178 M282.419,146.666c-1.195,0-2.025,0.975-2.025,2.281
			c0,1.301,0.83,2.283,2.025,2.283c1.188,0,2.016-0.982,2.016-2.283C284.435,147.641,283.607,146.666,282.419,146.666"/>
		<polygon points="292.287,152.076 292.201,148.324 290.228,151.314 290.101,151.314 288.107,148.316 288.04,152.076 
			286.988,152.076 287.253,145.734 287.415,145.719 290.191,149.871 292.902,145.719 293.074,145.734 293.339,152.076 		"/>
		<path d="M297.111,150.059c-0.205,0-0.42-0.014-0.623-0.023v2.041h-1.07v-6.205c0.555-0.068,1.078-0.102,1.59-0.102
			c1.719,0,2.6,0.939,2.6,2.109C299.607,149.152,298.71,150.059,297.111,150.059 M297.187,146.752c-0.238,0-0.477,0.018-0.699,0.051
			v2.291c0.213,0.016,0.41,0.033,0.598,0.033c0.965,0,1.41-0.502,1.41-1.213C298.496,147.299,298.06,146.752,297.187,146.752"/>
		<polygon points="317.456,149.443 317.456,152.076 316.388,152.076 316.388,149.436 314.183,145.812 315.406,145.812 
			316.943,148.461 318.464,145.812 319.66,145.812 		"/>
		<path d="M304.822,152.076l-0.607-1.434h-2.478l-0.606,1.434h-1.103l2.889-6.35h0.152l2.883,6.35H304.822z M302.976,147.701
			l-0.889,2.094h1.777L302.976,147.701z"/>
		<polygon points="312.562,152.195 308.64,148.061 308.64,152.076 307.572,152.076 307.572,145.727 307.742,145.691 311.617,149.77 
			311.617,145.812 312.681,145.812 312.681,152.172 		"/>
		<path d="M227.777,148.76v2.734c-0.666,0.438-1.395,0.684-2.334,0.684c-1.785,0-3.324-1.299-3.324-3.231
			c0-1.949,1.562-3.238,3.324-3.238c0.924,0,1.582,0.254,2.223,0.65l-0.486,0.854c-0.504-0.324-1.104-0.521-1.684-0.521
			c-1.428,0-2.232,1.01-2.232,2.256c0,1.334,0.984,2.283,2.223,2.283c0.537,0,0.896-0.094,1.266-0.299v-1.232h-1.463v-0.939H227.777
			z"/>
		<path d="M233.79,152.076l-0.607-1.434h-2.477l-0.611,1.434h-1.1l2.887-6.35h0.154l2.879,6.35H233.79z M231.943,147.701
			l-0.889,2.094h1.779L231.943,147.701z"/>
		<polygon points="241.529,152.195 237.607,148.061 237.607,152.076 236.537,152.076 236.537,145.727 236.708,145.691 
			240.58,149.77 240.58,145.812 241.648,145.812 241.648,152.172 		"/>
		<polygon points="248.771,152.195 244.847,148.061 244.847,152.076 243.781,152.076 243.781,145.727 243.953,145.691 
			247.822,149.77 247.822,145.812 248.89,145.812 248.89,152.172 		"/>
		<polygon points="251.025,152.076 251.025,145.812 254.843,145.812 254.843,146.783 252.093,146.783 252.093,148.426 
			254.58,148.426 254.58,149.367 252.093,149.367 252.093,151.102 254.843,151.102 254.843,152.076 		"/>
		<polygon points="259.544,146.785 259.544,152.076 258.476,152.076 258.476,146.785 256.484,146.785 256.484,145.812 
			261.527,145.812 261.527,146.785 		"/>
		<polygon points="265.871,146.785 265.871,152.076 264.802,152.076 264.802,146.785 262.81,146.785 262.81,145.812 
			267.853,145.812 267.853,146.785 		"/>
	</g>
</g>
</svg>
