<?xml version="1.0" encoding="utf-8"?>
<!-- Generator: Adobe Illustrator 17.0.0, SVG Export Plug-In . SVG Version: 6.00 Build 0)  -->
<!DOCTYPE svg PUBLIC "-//W3C//DTD SVG 1.1//EN" "http://www.w3.org/Graphics/SVG/1.1/DTD/svg11.dtd">
<svg version="1.1" id="Layer_1" xmlns="http://www.w3.org/2000/svg" xmlns:xlink="http://www.w3.org/1999/xlink" x="0px" y="0px"
	 width="83.122px" height="31.956px" viewBox="0 0 83.122 31.956" enable-background="new 0 0 83.122 31.956" xml:space="preserve">
<g>
	<path fill="#009BFF" d="M18.491,19.881c-3.149,0-5.702,2.553-5.702,5.702c0,3.149,2.553,5.702,5.702,5.702
		c3.149,0,5.702-2.553,5.702-5.702C24.193,22.434,21.64,19.881,18.491,19.881z M18.491,28.485c-1.602,0-2.901-1.299-2.901-2.902
		c0-1.603,1.299-2.902,2.901-2.902c1.603,0,2.902,1.299,2.902,2.902C21.392,27.186,20.093,28.485,18.491,28.485z"/>
	<path fill="#009BFF" d="M66.026,19.881c-3.149,0-5.702,2.553-5.702,5.702c0,3.149,2.553,5.702,5.702,5.702
		c3.149,0,5.702-2.553,5.702-5.702C71.729,22.434,69.176,19.881,66.026,19.881z M66.026,28.485c-1.602,0-2.901-1.299-2.901-2.902
		c0-1.603,1.299-2.902,2.901-2.902c1.603,0,2.902,1.299,2.902,2.902C68.928,27.186,67.629,28.485,66.026,28.485z"/>
	<path fill="#009BFF" d="M77.501,21.007h-0.012c-0.336,0-1.075-0.273-1.075-0.609V15.34c0-0.188-0.082-0.37-0.233-0.483
		c-2.685-2.012-8.363-2.866-9.437-3.012c-0.119-0.016-0.223-0.065-0.312-0.144c-0.951-0.853-6.975-7.186-9.981-9.244
		c-2.155-1.475-4.639-1.216-4.639-1.216H7.251L7.061,1.336C4.036,3.533,3.463,13.03,3.463,13.03v9.681H2.919v3.328
		c0,0.337,0.273,0.609,0.609,0.609h3.233c0.192,0,0.348-0.156,0.348-0.348v-0.007c0-0.192,0.156-0.348,0.348-0.348h4.096
		c0,0,0.18-0.001,0.188-0.183v-0.18c0-3.728,3.022-6.751,6.751-6.751c3.728,0,6.751,3.022,6.751,6.751v0.558h33.902v-0.558
		c0-3.728,3.022-6.751,6.751-6.751c3.728,0,6.751,3.022,6.751,6.751v0.504c0.063,0.023,0.129,0.039,0.2,0.039h2.706
		c0.283,0,0.529-0.195,0.593-0.47l0.159-0.391c0.065-0.276,0.31-0.47,0.593-0.47h0.604c0.337,0,0.609-0.273,0.609-0.609v-2.569
		C78.111,21.28,77.838,21.007,77.501,21.007z M34.202,11.152c0,0.421-0.341,0.761-0.761,0.761h-5.196
		c-0.42,0-0.761-0.341-0.761-0.761V3.684c0-0.421,0.341-0.761,0.761-0.761h5.196c0.421,0,0.761,0.341,0.761,0.761V11.152z
		 M45.521,11.152c0,0.421-0.341,0.761-0.761,0.761h-7.496c-0.421,0-0.761-0.341-0.761-0.761V3.684c0-0.421,0.341-0.761,0.761-0.761
		h7.496c0.421,0,0.761,0.341,0.761,0.761V11.152z M63.197,11.917H47.794c-0.144,0-0.262-0.117-0.262-0.262l-0.041-8.485
		c0-0.143,0.113-0.26,0.256-0.262c0.872-0.011,3.794-0.003,5.23-0.003c1.657,0,4.165,1.925,4.303,2.031
		c0.006,0.005,0.009,0.007,0.014,0.012l6.08,6.513C63.549,11.624,63.435,11.917,63.197,11.917z"/>
</g>
</svg>
